<?xml version="1.0" standalone="no"?>
<!DOCTYPE svg PUBLIC "-//W3C//DTD SVG 20010904//EN"
 "http://www.w3.org/TR/2001/REC-SVG-20010904/DTD/svg10.dtd">
<svg version="1.0" xmlns="http://www.w3.org/2000/svg"
 width="500.000000pt" height="500.000000pt" viewBox="0 0 500.000000 500.000000"
 preserveAspectRatio="xMidYMid meet">

<g transform="translate(0.000000,500.000000) scale(0.100000,-0.100000)"
fill="#000000" stroke="none">
<path d="M2056 3850 c-165 -42 -317 -131 -459 -269 -181 -176 -291 -400 -338
-686 -6 -41 -15 -75 -18 -75 -3 0 -23 27 -44 59 -20 32 -46 66 -57 76 -19 18
-119 49 -128 40 -18 -17 85 -194 212 -366 l94 -127 43 8 c24 5 91 12 149 16
l105 7 43 86 c48 98 140 230 230 331 l62 69 -43 46 c-41 42 -47 45 -95 45 -47
0 -56 -4 -104 -47 -29 -25 -78 -73 -109 -105 -31 -32 -60 -58 -64 -58 -23 0
52 203 117 316 49 86 50 90 35 116 l-16 28 25 -17 c25 -16 26 -15 56 23 171
214 417 345 655 348 l92 1 7 42 c3 24 4 49 1 57 -19 49 -310 72 -451 36z"/>
<path d="M2550 3788 c0 -7 3 -30 6 -50 6 -34 11 -38 58 -53 74 -24 153 -76
216 -140 60 -61 138 -120 147 -111 19 19 -177 223 -282 293 -102 68 -145 86
-145 61z"/>
<path d="M3689 2663 c-15 -17 -59 -118 -59 -134 0 -4 25 -11 55 -14 30 -4 55
-11 55 -15 0 -4 -30 -11 -68 -15 l-67 -7 -35 -61 c-49 -86 -168 -242 -234
-306 -43 -42 -53 -58 -44 -68 6 -7 15 -13 20 -13 5 0 25 -12 43 -26 44 -33
102 -41 144 -20 17 9 72 57 121 106 49 50 92 90 96 90 12 0 -7 -74 -43 -162
-91 -229 -266 -438 -455 -546 -180 -104 -443 -131 -602 -63 l-44 19 -4 -35
c-4 -30 0 -38 26 -58 68 -51 192 -97 310 -115 198 -31 450 43 642 188 239 181
382 422 439 742 9 52 19 101 21 109 3 8 24 -14 52 -55 50 -73 84 -98 146 -110
l39 -7 -7 29 c-16 63 -186 323 -300 460 -63 75 -213 128 -247 87z"/>
<path d="M1365 2465 c39 -32 114 -57 162 -53 28 2 41 9 50 28 14 28 18 27
-172 44 l-70 6 30 -25z"/>
<path d="M2270 1652 c0 -17 58 -87 136 -167 l79 -80 3 34 c3 32 -3 41 -78 113
-78 75 -140 119 -140 100z"/>
</g>
</svg>
